{
	"asset":{
		"generator":"Khronos glTF Blender I/O v3.6.28",
		"version":"2.0"
	},
	"extensionsUsed":[
		"KHR_materials_specular",
		"KHR_materials_ior"
	],
	"scene":0,
	"scenes":[
		{
			"name":"Scene",
			"nodes":[
				0
			]
		}
	],
	"nodes":[
		{
			"mesh":0,
			"name":"Cabeza.004"
		}
	],
	"materials":[
		{
			"doubleSided":true,
			"extensions":{
				"KHR_materials_specular":{
					"specularColorFactor":[
						0.948543059910952,
						0.948543059910952,
						0.948543059910952
					]
				},
				"KHR_materials_ior":{
					"ior":1.4500000476837158
				}
			},
			"name":"3D",
			"pbrMetallicRoughness":{
				"baseColorFactor":[
					0.5705926418304443,
					0.3738020360469818,
					0.2605978548526764,
					1
				],
				"metallicFactor":0,
				"roughnessFactor":0.5
			}
		},
		{
			"doubleSided":true,
			"extensions":{
				"KHR_materials_specular":{
					"specularColorFactor":[
						0.948543059910952,
						0.948543059910952,
						0.948543059910952
					]
				},
				"KHR_materials_ior":{
					"ior":1.4500000476837158
				}
			},
			"name":"3D Negro",
			"pbrMetallicRoughness":{
				"baseColorFactor":[
					0,
					0,
					0,
					1
				],
				"metallicFactor":0,
				"roughnessFactor":0.5
			}
		},
		{
			"doubleSided":true,
			"extensions":{
				"KHR_materials_specular":{
					"specularColorFactor":[
						0.948543059910952,
						0.948543059910952,
						0.948543059910952
					]
				},
				"KHR_materials_ior":{
					"ior":1.4500000476837158
				}
			},
			"name":"3D Pelo",
			"pbrMetallicRoughness":{
				"baseColorFactor":[
					0,
					0,
					0,
					1
				],
				"metallicFactor":0,
				"roughnessFactor":0.5
			}
		}
	],
	"meshes":[
		{
			"name":"Cube.001",
			"primitives":[
				{
					"attributes":{
						"POSITION":0,
						"NORMAL":1,
						"TEXCOORD_0":2
					},
					"indices":3,
					"material":0
				},
				{
					"attributes":{
						"POSITION":4,
						"NORMAL":5,
						"TEXCOORD_0":6
					},
					"indices":7,
					"material":1
				},
				{
					"attributes":{
						"POSITION":8,
						"NORMAL":9,
						"TEXCOORD_0":10
					},
					"indices":11,
					"material":2
				}
			]
		}
	],
	"accessors":[
		{
			"bufferView":0,
			"componentType":5126,
			"count":5262,
			"max":[
				1,
				0.8476394414901733,
				0.4749671220779419
			],
			"min":[
				-1,
				-0.6000001430511475,
				-1
			],
			"type":"VEC3"
		},
		{
			"bufferView":1,
			"componentType":5126,
			"count":5262,
			"type":"VEC3"
		},
		{
			"bufferView":2,
			"componentType":5126,
			"count":5262,
			"type":"VEC2"
		},
		{
			"bufferView":3,
			"componentType":5123,
			"count":28605,
			"type":"SCALAR"
		},
		{
			"bufferView":4,
			"componentType":5126,
			"count":1786,
			"max":[
				0.47645169496536255,
				0.47728803753852844,
				-0.6931882500648499
			],
			"min":[
				-0.4764517545700073,
				0.12332269549369812,
				-0.7877100110054016
			],
			"type":"VEC3"
		},
		{
			"bufferView":5,
			"componentType":5126,
			"count":1786,
			"type":"VEC3"
		},
		{
			"bufferView":6,
			"componentType":5126,
			"count":1786,
			"type":"VEC2"
		},
		{
			"bufferView":7,
			"componentType":5123,
			"count":10026,
			"type":"SCALAR"
		},
		{
			"bufferView":8,
			"componentType":5126,
			"count":4047,
			"max":[
				0.9081674814224243,
				1.399999976158142,
				1
			],
			"min":[
				-0.9160929918289185,
				-0.48608139157295227,
				-0.8250810503959656
			],
			"type":"VEC3"
		},
		{
			"bufferView":9,
			"componentType":5126,
			"count":4047,
			"type":"VEC3"
		},
		{
			"bufferView":10,
			"componentType":5126,
			"count":4047,
			"type":"VEC2"
		},
		{
			"bufferView":11,
			"componentType":5123,
			"count":21663,
			"type":"SCALAR"
		}
	],
	"bufferViews":[
		{
			"buffer":0,
			"byteLength":63144,
			"byteOffset":0,
			"target":34962
		},
		{
			"buffer":0,
			"byteLength":63144,
			"byteOffset":63144,
			"target":34962
		},
		{
			"buffer":0,
			"byteLength":42096,
			"byteOffset":126288,
			"target":34962
		},
		{
			"buffer":0,
			"byteLength":57210,
			"byteOffset":168384,
			"target":34963
		},
		{
			"buffer":0,
			"byteLength":21432,
			"byteOffset":225596,
			"target":34962
		},
		{
			"buffer":0,
			"byteLength":21432,
			"byteOffset":247028,
			"target":34962
		},
		{
			"buffer":0,
			"byteLength":14288,
			"byteOffset":268460,
			"target":34962
		},
		{
			"buffer":0,
			"byteLength":20052,
			"byteOffset":282748,
			"target":34963
		},
		{
			"buffer":0,
			"byteLength":48564,
			"byteOffset":302800,
			"target":34962
		},
		{
			"buffer":0,
			"byteLength":48564,
			"byteOffset":351364,
			"target":34962
		},
		{
			"buffer":0,
			"byteLength":32376,
			"byteOffset":399928,
			"target":34962
		},
		{
			"buffer":0,
			"byteLength":43326,
			"byteOffset":432304,
			"target":34963
		}
	],
	"buffers":[
		{
			"byteLength":475632,
			"uri":"monieco.bin"
		}
	]
}
